<svg xmlns="http://www.w3.org/2000/svg" width="158" height="44" viewBox="0 0 158 44"><g fill="none" fill-rule="evenodd"><path fill="#C1272D" d="M109.351 29.136c-1.164-1-1.788-2.394-1.87-4.18l-.023-.994.023-1.016c.067-1.788.686-3.185 1.858-4.193 1.171-1.008 2.699-1.512 4.582-1.513 1.437 0 2.642.257 3.615.77.973.513 1.7 1.12 2.18 1.822.48.71.735 1.35.768 1.923a.533.533 0 0 1-.177.46.669.669 0 0 1-.47.177h-3.316a.646.646 0 0 1-.421-.122 1.116 1.116 0 0 1-.273-.398 2.243 2.243 0 0 0-.708-1.016 1.789 1.789 0 0 0-1.102-.323c-1.272 0-1.933.843-1.982 2.53l-.025.942.025.82c.015.858.189 1.49.52 1.896.332.406.82.609 1.462.609.4.023.795-.086 1.126-.31.319-.273.554-.63.68-1.03.061-.15.155-.286.273-.397a.646.646 0 0 1 .422-.124h3.32a.657.657 0 0 1 .444.177.533.533 0 0 1 .202.435c0 .513-.227 1.129-.68 1.847-.454.718-1.176 1.35-2.168 1.898-.991.546-2.231.82-3.72.818-1.88-.006-3.402-.509-4.565-1.508z"/><path fill="#C1272D" fill-rule="nonzero" d="M124.012 29.185c-1.113-.968-1.72-2.345-1.819-4.13a16.144 16.144 0 0 1-.025-1.118c0-.53 0-.9.025-1.116.1-1.752.722-3.12 1.869-4.105 1.147-.984 2.728-1.476 4.743-1.476 2.014 0 3.595.492 4.744 1.476 1.149.984 1.772 2.353 1.869 4.105.033.432.05.802.05 1.116 0 .314-.017.687-.05 1.118-.1 1.785-.706 3.162-1.821 4.13-1.115.97-2.712 1.452-4.792 1.45-2.08 0-3.678-.483-4.793-1.45zm6.304-2.306c.33-.422.52-1.073.569-1.952.018-.165.025-.496.025-.993s0-.827-.025-.992c-.05-.861-.24-1.506-.569-1.936-.33-.429-.833-.644-1.51-.644s-1.18.215-1.511.644c-.331.43-.521 1.075-.57 1.936l-.026.992.025.993c.05.877.24 1.527.57 1.952.331.425.835.636 1.511.633.677 0 1.18-.212 1.511-.635v.002z"/><path fill="#C1272D" d="M138.006 30.202a.597.597 0 0 1-.178-.435V18.11a.582.582 0 0 1 .178-.447.62.62 0 0 1 .434-.177h2.873a.606.606 0 0 1 .623.625v.842a4.96 4.96 0 0 1 1.54-1.21 4.49 4.49 0 0 1 2.125-.497c1.816 0 3.062.71 3.74 2.13A4.505 4.505 0 0 1 151 17.835a4.589 4.589 0 0 1 2.278-.596c1.355 0 2.458.459 3.307 1.377.849.917 1.274 2.286 1.275 4.105v7.045a.621.621 0 0 1-.177.435.58.58 0 0 1-.446.186h-3.045a.648.648 0 0 1-.46-.177.582.582 0 0 1-.176-.447v-6.868c0-.762-.161-1.32-.484-1.675a1.665 1.665 0 0 0-1.3-.532 1.61 1.61 0 0 0-1.25.532c-.322.355-.482.913-.482 1.675v6.871a.621.621 0 0 1-.177.435.584.584 0 0 1-.447.186h-3.046a.644.644 0 0 1-.457-.177.582.582 0 0 1-.186-.447v-6.868c0-.762-.166-1.32-.496-1.675a1.678 1.678 0 0 0-1.288-.532 1.648 1.648 0 0 0-1.263.532c-.332.355-.497.905-.496 1.65v6.896a.621.621 0 0 1-.177.435.58.58 0 0 1-.445.186h-3.122a.595.595 0 0 1-.434-.186zM100.002 30.325a.582.582 0 0 1-.177-.444v-3.257a.63.63 0 0 1 .641-.643h3.252a.58.58 0 0 1 .443.178c.117.123.18.287.177.457v3.258a.61.61 0 0 1-.62.608h-3.259a.642.642 0 0 1-.457-.157z"/><path fill="#fff" fill-rule="nonzero" d="M57.167 30.25a.762.762 0 0 1-.24-.56V8.87a.836.836 0 0 1 .224-.594.75.75 0 0 1 .576-.24h8.424c3.16 0 5.616.754 7.367 2.262 1.751 1.508 2.67 3.673 2.756 6.496.02.62.032 1.444.032 2.471 0 1.027-.013 1.84-.032 2.438-.215 5.862-3.536 8.792-9.964 8.79h-8.583a.763.763 0 0 1-.56-.244zm8.984-4.57c1.346 0 2.34-.321 2.98-.964.64-.642.981-1.666 1.025-3.07.042-.62.064-1.42.064-2.407 0-.986-.022-1.774-.064-2.374-.044-1.37-.412-2.38-1.105-3.032-.694-.651-1.713-.98-3.06-.988h-3.043V25.68h3.203z"/><path fill="#fff" d="M80.298 30.25a.767.767 0 0 1-.239-.56V8.87a.842.842 0 0 1 .223-.594.754.754 0 0 1 .578-.24h14.893a.82.82 0 0 1 .834.834v3.398a.756.756 0 0 1-.24.576.83.83 0 0 1-.594.225h-9.8v4.459h9.828a.821.821 0 0 1 .833.836v3.399a.758.758 0 0 1-.241.578.835.835 0 0 1-.592.224h-9.829v7.123a.788.788 0 0 1-.221.561.749.749 0 0 1-.576.241H80.86a.766.766 0 0 1-.562-.241z"/><path fill="#fff" fill-rule="nonzero" d="M51.9 9.935c-1.583-1.269-3.763-1.903-6.539-1.901h-9.064a.754.754 0 0 0-.577.24.842.842 0 0 0-.223.597v15.742c0 .338.161.655.434.854l5.073 3.692a.446.446 0 0 0 .708-.355v-5.873c0-.089.073-.161.162-.161h3.489c2.776 0 4.954-.604 6.534-1.813s2.37-3.032 2.372-5.47c-.001-2.445-.791-4.295-2.37-5.552zm-4.633 7.546c-.502.461-1.19.691-2.065.69h-3.426a.161.161 0 0 1-.161-.161v-5.195c0-.09.072-.161.161-.161h3.426c.96 0 1.668.256 2.125.77.457.513.687 1.186.69 2.02.002.898-.248 1.577-.75 2.037z"/><path fill="#C1272D" d="M41.271 33.367l-10.08-7.332a1.461 1.461 0 0 0-1.617-.086 1.757 1.757 0 0 0-.833 1.52v3.03h-5.087v2.455a1.42 1.42 0 0 1-.675 1.233 1.192 1.192 0 0 1-1.312-.067l-8.177-5.95a1.473 1.473 0 0 1 0-2.329l8.177-5.949a1.183 1.183 0 0 1 1.312-.067c.43.264.687.737.675 1.242v2.441c1.824-1.568 3.277-3.057 4.357-4.466a11.434 11.434 0 0 0 2.438-7.139c0-2.377-.575-4.461-1.726-6.252-1.15-1.79-2.838-3.18-5.066-4.17C21.43.494 18.783 0 15.717 0c-2.952 0-5.563.576-7.831 1.728-2.269 1.152-4.03 2.705-5.284 4.66a12.562 12.562 0 0 0-2 6.564 1.1 1.1 0 0 0 .355.796c.221.23.528.359.848.355h7.229c1.022 0 1.643-.42 1.863-1.261.21-1.19.74-2.3 1.532-3.21.769-.862 1.865-1.293 3.288-1.293 2.702 0 4.052 1.353 4.052 4.06 0 1.064-.465 2.187-1.395 3.37-.93 1.183-2.282 2.509-4.053 3.978C12.55 21.21 1.369 30.882 1.369 30.882.456 31.615 0 32.529 0 33.625v4.114c-.002.363.147.71.41.96.25.264.597.413.96.411h27.37v3.027c-.01.618.306 1.196.832 1.52.507.3 1.144.268 1.617-.083l10.082-7.334a1.818 1.818 0 0 0 0-2.873z"/></g></svg>
