<svg width="256" height="78" viewBox="0 0 256 78" fill="none" xmlns="http://www.w3.org/2000/svg">
<path d="M251.019 32.32L243.746 22.6375H240.153V32.32H236.604V10.4137H240.153V19.3953H243.702L251.019 10.4137H255.093L246.55 20.7973L255.269 32.32H251.019Z" fill="white"/>
<path d="M211.275 10.4137H214.824V27.1502L226.346 10.4137H229.939V32.32H226.39V15.5836L214.868 32.32H211.275V10.4137Z" fill="white"/>
<path d="M188.499 10.4137H207.075V13.6559H199.539V32.32H196.034V13.6559H188.499V10.4137Z" fill="white"/>
<path d="M182.475 32.32L175.202 22.6375H171.61V32.32H168.061V10.4137H171.61V19.3953H175.159L182.475 10.4137H186.55L178.006 20.7973L186.725 32.32H182.475Z" fill="white"/>
<path d="M150.155 29.5598C154.624 29.5598 157.866 26.1424 157.866 21.3668C157.866 16.5912 154.624 13.1739 150.155 13.1739C145.686 13.1739 142.444 16.5912 142.444 21.3668C142.444 26.1424 145.686 29.5598 150.155 29.5598ZM149.673 32.9333C143.539 32.9333 138.851 28.0263 138.851 21.3668C138.851 14.7073 143.539 9.80029 149.673 9.80029C153.222 9.80029 156.113 11.4214 157.866 14.1377V10.4137H161.415V32.32H157.866V28.5959C156.113 31.3123 153.222 32.9333 149.673 32.9333Z" fill="white"/>
<path d="M123.443 29.6036C127.955 29.6036 131.066 26.0986 131.066 21.3668C131.066 16.6351 127.955 13.1301 123.443 13.1301C118.93 13.1301 115.819 16.6351 115.819 21.3668C115.819 26.0986 118.93 29.6036 123.443 29.6036ZM123.925 32.9333C120.42 32.9333 117.572 31.3123 115.819 28.5959V41.0825H112.271V10.4137H115.819V14.1377C117.572 11.4214 120.42 9.80029 123.925 9.80029C130.015 9.80029 134.659 14.7073 134.659 21.3668C134.659 28.0263 130.015 32.9333 123.925 32.9333Z" fill="white"/>
<path d="M105.555 32.32V10.4137H91.7697L87.1538 17.7912V32.32H90.7026V13.6997H102.006V32.32H105.555Z" fill="white"/>
<path d="M29.0021 19.22H43.1536C42.9783 15.6712 40.1743 13.0862 36.3188 13.0862C32.5071 13.0862 29.7908 15.5397 29.0021 19.22ZM36.5379 32.9333C29.7908 32.9333 25.1904 28.114 25.1904 21.4544C25.1904 14.7073 29.9222 9.80029 36.4065 9.80029C42.5402 9.80029 46.79 14.1377 46.79 20.4029C46.79 21.0601 46.7462 21.7173 46.6586 22.3745H28.8269C29.2212 26.7558 32.2004 29.6036 36.5817 29.6036C39.3419 29.6036 41.4887 28.4645 43.066 26.011L45.87 28.114C43.6793 31.2685 40.5248 32.9333 36.5379 32.9333Z" fill="white"/>
<path d="M7.67107 22.4184V29.2532H14.5058C16.5212 29.2532 18.0985 28.0264 18.0985 25.8358C18.0985 23.689 16.5212 22.4184 14.5058 22.4184H7.67107ZM7.67107 13.4806V19.4391H14.1553C16.0831 19.4391 17.266 18.2124 17.266 16.4599C17.266 14.7512 16.0831 13.4806 14.1553 13.4806H7.67107ZM14.5935 32.32H4.34131V10.4137H14.243C18.0547 10.4137 20.6396 12.7358 20.6396 16.1532C20.6396 18.3438 19.5443 19.9211 17.748 20.7097C20.07 21.4545 21.5158 23.4261 21.5158 26.1863C21.5158 29.9104 18.7995 32.32 14.5935 32.32Z" fill="white"/>
<path d="M88.9886 10.2164H84.4926L70.4805 32.3201H75.0196L88.9886 10.2164Z" fill="white"/>
<path d="M73.9646 21.7383C73.9646 15.2098 69.7136 10.6509 63.5364 10.6509C59.767 10.6509 56.8264 12.36 55.1252 15.4703C55.3857 8.36558 58.1052 5.43684 64.8508 4.86846L72.0819 4.23693L71.8608 0.818758L64.5429 1.47397C55.4291 2.30681 51.707 7.08278 51.707 17.8623V19.2635C51.707 27.7181 56.0015 32.9322 63.0115 32.9322C64.6635 32.9491 66.3009 32.621 67.819 31.9691L73.9528 22.2948C73.9607 22.1054 73.9646 21.912 73.9646 21.7383ZM63.0115 29.6324C58.6697 29.6324 55.6067 26.3879 55.6067 21.7383C55.6067 17.0886 58.6736 13.8441 63.0115 13.8441C67.3493 13.8441 70.4162 17.0847 70.4162 21.7383C70.4162 26.3919 67.3493 29.6324 63.0115 29.6324Z" fill="white"/>
<path d="M17.7441 66.9489L10.4712 57.2663H6.87858V66.9489H3.32976V45.0426H6.87858V54.0242H10.4274L17.7441 45.0426H21.8187L13.2752 55.4262L21.9939 66.9489H17.7441ZM33.8356 67.5622C27.2199 67.5622 22.532 62.5676 22.532 55.9957C22.532 49.4238 27.2199 44.4292 33.8356 44.4292C40.4513 44.4292 45.1393 49.4238 45.1393 55.9957C45.1393 62.5676 40.4513 67.5622 33.8356 67.5622ZM33.8356 64.2325C38.3922 64.2325 41.5467 60.7275 41.5467 55.9957C41.5467 51.264 38.3922 47.759 33.8356 47.759C29.2791 47.759 26.1246 51.264 26.1246 55.9957C26.1246 60.7275 29.2791 64.2325 33.8356 64.2325ZM54.0945 45.0426L61.236 59.6322L68.3774 45.0426H72.7587V66.9489H69.3413V50.3001L62.5942 63.9258H59.7902L53.043 50.3001V66.9489H49.6256V45.0426H54.0945ZM88.5175 64.1887C92.9864 64.1887 96.2285 60.7713 96.2285 55.9957C96.2285 51.2201 92.9864 47.8028 88.5175 47.8028C84.0486 47.8028 80.8065 51.2201 80.8065 55.9957C80.8065 60.7713 84.0486 64.1887 88.5175 64.1887ZM88.0356 67.5622C81.9018 67.5622 77.2139 62.6552 77.2139 55.9957C77.2139 49.3362 81.9018 44.4292 88.0356 44.4292C91.5844 44.4292 94.476 46.0503 96.2285 48.7666V45.0426H99.7774V66.9489H96.2285V63.2248C94.476 65.9412 91.5844 67.5622 88.0356 67.5622ZM120.401 45.0426H123.95V66.9489H120.401V56.9596H109.097V66.9489H105.548V45.0426H109.097V53.6737H120.401V45.0426ZM133.907 63.6629H144.334V48.3285H135.484V50.8258C135.484 57.2663 135.002 61.1218 133.907 63.6629ZM131.147 72.6445H127.641V63.6629H130.183C131.453 61.7352 131.979 58.0111 131.979 48.9419V45.0426H147.883V63.6629H151.3V72.6445H147.795V66.9489H131.147V72.6445ZM164.957 64.1887C169.426 64.1887 172.668 60.7713 172.668 55.9957C172.668 51.2201 169.426 47.8028 164.957 47.8028C160.488 47.8028 157.246 51.2201 157.246 55.9957C157.246 60.7713 160.488 64.1887 164.957 64.1887ZM164.475 67.5622C158.341 67.5622 153.653 62.6552 153.653 55.9957C153.653 49.3362 158.341 44.4292 164.475 44.4292C168.024 44.4292 170.915 46.0503 172.668 48.7666V45.0426H176.217V66.9489H172.668V63.2248C170.915 65.9412 168.024 67.5622 164.475 67.5622Z" fill="white"/>
</svg>
